<svg width="18" height="17" viewBox="0 0 18 17" xmlns="http://www.w3.org/2000/svg">
  <path
    d="M12.9537 0C14.3511 0 15.5249 0.47123 16.4751 1.41369C17.4253 2.35615 17.9004 3.5065 17.9004 4.86475C17.9004 5.53002 17.7607 6.20221 17.4812 6.88134C17.2017 7.56047 16.8943 8.16336 16.5589 8.69003C16.2235 9.2167 15.6576 9.89582 14.8611 10.7274C14.0646 11.559 13.3939 12.2312 12.8489 12.744C12.3039 13.2568 11.4305 14.0399 10.2288 15.0932L8.92924 16.2574L7.62968 15.1348C6.45588 14.0537 5.58951 13.2568 5.03056 12.744C4.4716 12.2312 3.79388 11.559 2.99737 10.7274C2.20087 9.89582 1.63493 9.2167 1.29956 8.69003C0.96419 8.16336 0.663754 7.56047 0.398252 6.88134C0.132751 6.20221 0 5.53002 0 4.86475C0 3.5065 0.475108 2.35615 1.42532 1.41369C2.37554 0.47123 3.53536 0 4.90479 0C6.52575 0 7.86723 0.623686 8.92924 1.87106C9.99124 0.623686 11.3327 0 12.9537 0Z"
    fill="#f00707ff"
  />
</svg>
